<?xml version="1.0" encoding="UTF-8" standalone="no"?>
<svg
   xmlns:dc="http://purl.org/dc/elements/1.1/"
   xmlns:cc="http://creativecommons.org/ns#"
   xmlns:rdf="http://www.w3.org/1999/02/22-rdf-syntax-ns#"
   xmlns:svg="http://www.w3.org/2000/svg"
   xmlns="http://www.w3.org/2000/svg"
   xmlns:sodipodi="http://sodipodi.sourceforge.net/DTD/sodipodi-0.dtd"
   xmlns:inkscape="http://www.inkscape.org/namespaces/inkscape"
   inkscape:version="1.0beta1 (32d4812, 2019-09-19)"
   sodipodi:docname="logo_stack.svg"
   viewBox="0 0 200 200"
   height="200"
   width="200"
   id="svg867"
   version="1.1">
  <metadata
     id="metadata873">
    <rdf:RDF>
      <cc:Work
         rdf:about="">
        <dc:format>image/svg+xml</dc:format>
        <dc:type
           rdf:resource="http://purl.org/dc/dcmitype/StillImage" />
        <dc:title></dc:title>
      </cc:Work>
    </rdf:RDF>
  </metadata>
  <defs
     id="defs871" />
  <sodipodi:namedview
     inkscape:current-layer="text881"
     inkscape:window-maximized="1"
     inkscape:window-y="23"
     inkscape:window-x="0"
     inkscape:cy="37.14311"
     inkscape:cx="170.80676"
     inkscape:zoom="1.4481372"
     fit-margin-bottom="0"
     fit-margin-right="0"
     fit-margin-left="0"
     fit-margin-top="0"
     showgrid="false"
     id="namedview869"
     inkscape:window-height="755"
     inkscape:window-width="1280"
     inkscape:pageshadow="2"
     inkscape:pageopacity="0"
     guidetolerance="10"
     gridtolerance="10"
     objecttolerance="10"
     borderopacity="1"
     inkscape:document-rotation="0"
     bordercolor="#666666"
     pagecolor="#ffffff" />
  <g
     transform="translate(-7.7332213,-5.4271601)"
     id="g875"
     inkscape:label="Image"
     inkscape:groupmode="layer" />
  <g
     style="font-size:53.3333px;line-height:1.25;font-family:OCR-A;-inkscape-font-specification:OCR-A"
     id="text881"
     aria-label="CODING CLUB">
    <g
       transform="translate(0.27089001,50.34264)"
       id="g951">
      <g
         id="g931">
        <path
           inkscape:connector-curvature="0"
           id="path883"
           style="letter-spacing:2.5px"
           d="m 26.453318,39.748549 q 0.959999,0.266666 1.439999,0.959999 0.533333,0.64 0.533333,1.439999 0,2.026666 -2.079999,2.613332 H 13.119992 q -1.493332,0 -2.666665,-0.906666 Q 9.2799945,42.948547 8.5333283,41.508548 L 1.1199994,27.055223 Q 2.861023e-8,24.868557 2.861023e-8,23.001892 q 0,-1.439999 0.85333282138977,-3.413331 L 7.3599956,5.7219022 Q 8.2666618,3.6952368 9.0666613,2.681904 9.9199941,1.6685713 11.46666,1.6685713 L 26.026651,1.615238 q 0.746666,0 1.12,0.7466662 0.426666,0.7466663 0.426666,1.8666656 0,1.1733326 -0.533333,2.0266655 -0.48,0.7999995 -1.333333,0.5866663 H 12.586659 Q 9.9733274,12.441898 7.946662,16.921896 q -2.0266655,4.426664 -2.0266655,5.01333 -0.3199998,0.64 -0.3199998,1.279999 0,0.48 0.3199998,1.119999 l 7.8933285,15.413325 z" />
        <path
           inkscape:connector-curvature="0"
           id="path885"
           style="letter-spacing:2.5px"
           d="m 48.736639,0.01523897 q 1.333332,-0.1066666 2.506665,0.53333302 1.226666,0.58666631 2.826665,1.91999881 l 8.106662,14.6666582 q 0.533333,2.079999 0.533333,4.266664 0,2.559998 -0.853333,5.546663 l -7.519996,15.306658 q -1.173332,0.853333 -2.613331,1.706665 -1.386666,0.853333 -2.719999,0.853333 -1.599999,0 -3.146665,-0.959999 -1.546665,-0.96 -2.666665,-2.506665 L 36.14998,27.055223 q -0.64,-2.346665 -0.64,-4.586664 0,-2.186665 0.64,-4.586664 L 43.029975,3.6952368 Q 46.17664,0.01523897 48.736639,0.01523897 Z m 0.106666,6.07999633 q -0.959999,0.3733332 -1.546665,1.0666661 -1.813333,3.1466646 -3.306665,6.0799966 -1.493333,2.933331 -2.773332,6.079996 l -0.586666,2.933332 1.119999,3.946664 q 1.439999,2.986665 2.879998,5.706663 1.44,2.719999 3.573332,6.399996 0.853332,0.426667 1.386666,0.426667 l 1.226665,-0.746666 q 1.546666,-2.773332 3.199999,-6.13333 1.706665,-3.359998 3.039998,-6.453329 L 57.696633,22.575226 57.056634,19.428561 50.283304,6.6285684 Q 49.963305,6.4685685 49.536638,6.3085686 49.163305,6.0952353 48.843305,6.0952353 Z" />
        <path
           inkscape:connector-curvature="0"
           id="path887"
           style="letter-spacing:2.5px"
           d="m 98.474113,27.161889 -7.679995,13.973325 q -0.64,1.226666 -1.386666,1.973333 -0.746667,0.746666 -1.653333,1.119999 -0.853332,0.32 -1.759999,0.426666 -0.906666,0.05333 -1.653332,0.106667 -0.746666,0.106667 -2.186665,0.16 -1.439999,0.05333 -2.826665,0.05333 -2.133332,0 -3.733331,-0.05333 -1.599999,-0.05333 -2.773332,-0.16 -0.8,0 -1.279999,-0.8 -0.426667,-0.799999 -0.426667,-1.866665 0,-0.96 0.32,-1.599999 0.373333,-0.64 1.066666,-0.64 h 4.053331 V 6.8419016 h -4.479997 q -0.693333,0 -1.066666,-0.533333 Q 70.63413,5.7752355 70.63413,4.975236 q 0,-1.1199993 0.586666,-2.0799987 0.586666,-0.9599995 1.386666,-0.9599995 h 14.453324 q 0.64,0 1.013333,0.2666665 0.373333,0.2133332 1.226666,0.9066662 0.906666,0.6399996 1.333333,1.4399991 l 7.573328,15.0933244 q 1.173333,2.239999 1.173333,4.213331 0,0.746666 -0.213333,1.653332 -0.213333,0.853333 -0.693333,1.653332 z M 93.620782,22.788559 92.714116,19.90856 Q 91.540784,16.601896 89.567452,13.295231 87.594119,9.9885664 85.727454,7.268568 84.127455,6.735235 82.954122,6.735235 q -0.266666,0 -0.906666,0.1066666 V 39.855215 q 0.373333,0.05333 1.119999,0.05333 1.706666,0 2.986665,-0.746667 1.759999,-2.933331 3.679998,-6.506662 1.973332,-3.573332 3.039998,-7.146663 z" />
        <path
           inkscape:connector-curvature="0"
           id="path889"
           style="letter-spacing:2.5px"
           d="m 129.3416,6.4152352 h -8.96 V 39.161882 h 9.49333 q 0.53333,0.426667 0.85333,1.173333 0.32,0.746666 0.32,1.439999 0,1.119999 -0.58666,1.973332 -0.58667,0.853333 -1.70667,1.013333 h -24.21332 q -0.90666,-1.546666 -0.90666,-3.199998 0,-1.119999 0.48,-1.759999 0.48,-0.64 1.49333,-0.64 h 8.85333 V 6.4152352 h -8.21333 q -1.17334,-0.1066666 -1.76,-0.9066662 -0.53333,-0.7999995 -0.53333,-1.8666655 0,-1.0133328 0.42666,-1.7066657 0.48,-0.6933329 1.33333,-0.6933329 h 23.14666 q 1.92,0.4266664 1.92,2.5599985 0,1.6533323 -1.44,2.6133318 z" />
        <path
           inkscape:connector-curvature="0"
           id="path891"
           style="letter-spacing:2.5px"
           d="m 166.56408,43.00188 q -0.32,0.906666 -1.28,1.493332 -0.96,0.586667 -2.02667,0.586667 -1.17333,0 -1.81333,-0.64 L 144.59076,11.428566 v 31.679981 q -0.32,0.853332 -1.28,1.439999 -0.90667,0.586666 -1.70667,0.479999 -0.8,-0.159999 -1.44,-0.639999 -0.58666,-0.533333 -0.58666,-1.279999 0,-3.253332 -0.0533,-8.479995 0,-5.226664 -0.0533,-12.42666 0,-7.199995 0,-14.399991 0,-2.3999986 0,-3.9466643 0,-1.5999991 0.0533,-2.7199984 0.53334,-0.2133332 1.28,-0.31999981 0.8,-0.1066666 1.54667,-0.1066666 1.6,0 3.14666,0.42666641 L 161.23075,33.401886 V 2.2552376 q 0.16,-0.7466662 0.8,-1.2266659 0.69333,-0.53333301 1.70666,-0.74666622 1.06667,-0.1066666 1.92,0.37333311 0.90667,0.42666641 0.90667,1.38666581 z" />
        <path
           inkscape:connector-curvature="0"
           id="path893"
           style="letter-spacing:2.5px"
           d="m 199.45822,36.655217 q 0,2.773332 -1.81333,4.799997 -1.76,1.973332 -4.74667,3.306665 H 178.6049 q -1.92,-0.32 -3.68,-2.026665 -1.76,-1.706666 -2.34666,-3.679998 l -0.10667,-1.599999 V 16.868562 q 5.38666,-7.8399951 11.14666,-14.0799913 0.69333,-0.16 1.17333,-0.3733332 0.48,-0.2133332 1.44,-0.6933329 1.49333,0 4.96,0 3.52,0 5.81333,0 0.64,0 1.01333,0.7466662 0.42667,0.693333 0.42667,1.759999 0,1.7066656 -1.01334,2.2399987 -0.95999,0.533333 -1.81333,0.3733331 -1.01333,-0.1066666 -2.29333,-0.1599999 -1.28,-0.053333 -1.49333,-0.053333 -0.74667,0 -1.33333,0 -0.53334,0 -1.54667,0.2133332 l -2.18667,0.533333 q -4.58666,5.0133301 -8.85332,10.8266601 v 19.253322 l 1.65333,1.973332 h 12.58666 q 1.44,-0.373333 2.18666,-1.973332 V 31.85522 l -0.90666,-1.386666 h -5.33333 q -0.90667,-0.16 -1.38667,-0.853333 -0.48,-0.746666 -0.48,-1.653332 0,-1.653332 1.22667,-2.453332 h 11.99999 z" />
      </g>
      <g
         id="g937"
         transform="translate(-3.1991565)">
        <path
           inkscape:connector-curvature="0"
           id="path895"
           style="letter-spacing:2.5px"
           d="m 63.942873,94.30139 q 0.96,0.266666 1.44,0.959999 0.53333,0.64 0.53333,1.439999 0,2.026666 -2.08,2.613332 h -13.22666 q -1.49333,0 -2.66666,-0.906666 -1.17333,-0.906666 -1.92,-2.346665 l -7.41333,-14.453325 q -1.12,-2.186666 -1.12,-4.053331 0,-1.439999 0.85334,-3.413331 l 6.50666,-13.866659 q 0.90666,-2.026665 1.70666,-3.039998 0.85334,-1.013332 2.4,-1.013332 l 14.55999,-0.05333 q 0.74667,0 1.12,0.746666 0.42667,0.746666 0.42667,1.866665 0,1.173333 -0.53333,2.026666 -0.48,0.799999 -1.33334,0.586666 h -13.11999 q -2.61333,5.599997 -4.64,10.079995 -2.02666,4.426664 -2.02666,5.01333 -0.32,0.64 -0.32,1.279999 0,0.48 0.32,1.119999 l 7.89333,15.413325 z" />
        <path
           inkscape:connector-curvature="0"
           id="path897"
           style="letter-spacing:2.5px"
           d="M 97.479523,99.31472 H 72.572873 V 57.128079 q 0,-0.693333 0.64,-1.013333 0.69333,-0.32 1.65333,-0.426666 0.96,-0.16 1.92,0.266666 1.01333,0.373333 1.01333,1.173333 v 36.266644 h 19.78666 q 1.12,0.16 1.76,1.12 0.693327,0.906666 0.693327,1.973332 0,1.173333 -0.693327,2.026665 -0.64,0.8 -1.86667,0.8 z" />
        <path
           inkscape:connector-curvature="0"
           id="path899"
           style="letter-spacing:2.5px"
           d="m 133.10118,92.541391 q -1.01334,4.959997 -5.44,6.666662 h -15.73332 q -2.18667,-0.373333 -3.68,-1.813332 -1.44,-1.493332 -2.45333,-3.893331 V 59.528077 q 0,-1.279999 0.74666,-1.973332 0.8,-0.746666 1.86667,-0.746666 1.12,0 1.97333,0.693333 0.85333,0.693333 0.85333,1.919999 v 32.906646 q 0.16,0.586667 0.58667,1.28 3.04,1.173332 7.09333,1.173332 2.13333,0 4.21333,-0.373333 2.13333,-0.373333 3.84,-1.013333 0.32,-0.426666 0.48,-0.693332 0.21333,-0.266667 0.21333,-0.586667 v -33.11998 q 0,-1.066666 0.69333,-1.599999 0.74667,-0.586666 1.86667,-0.586666 1.12,0 1.97333,0.586666 0.90667,0.533333 0.90667,1.386666 z" />
        <path
           inkscape:connector-curvature="0"
           id="path901"
           style="letter-spacing:2.5px"
           d="m 168.36698,67.848072 q 0,3.413331 -1.17333,6.13333 -1.17334,2.719998 -3.78667,3.786664 2.50667,1.333333 3.73333,3.893331 1.22667,2.559999 1.22667,5.65333 0,5.17333 -1.70667,8.586662 -1.70666,3.413331 -6.66666,3.413331 H 140.90033 V 56.381412 l 17.49332,-0.106666 q 3.36,0 6.66666,3.733331 3.30667,3.733331 3.30667,7.839995 z m -11.30666,-5.759996 -10.82666,-0.16 v 13.759991 h 10.61333 q 2.87999,0 4.53333,-2.293332 1.65333,-2.346665 1.65333,-5.279996 0,-2.346666 -1.70667,-4.159998 -1.65333,-1.866665 -4.26666,-1.866665 z m 5.65333,25.226651 q 0,-2.826665 -1.22667,-4.639997 -1.17333,-1.813332 -3.68,-1.813332 h -11.67999 v 13.653325 h 11.83999 q 2.45334,0 3.57334,-2.079999 1.17333,-2.079999 1.17333,-5.119997 z" />
      </g>
    </g>
  </g>
</svg>
